<?xml version="1.0" standalone="no"?><!DOCTYPE svg PUBLIC "-//W3C//DTD SVG 1.1//EN" "http://www.w3.org/Graphics/SVG/1.1/DTD/svg11.dtd"><svg class="icon" height="512" viewBox="0 0 1024 1024" version="1.1" xmlns="http://www.w3.org/2000/svg"><path d="M329.263 277.622c0.207-9.377 2.417-18.26 6.243-26.224-0.683-0.042-1.363-0.104-2.058-0.104h-99.46c-15.915 0-29.19 11.3-32.241 26.313l0.331 0.012h127.185v0.003z" fill="#2B3237" /><path d="M329.226 279.061c0-0.483 0.025-0.961 0.037-1.442H202.078l-0.331-0.012c-4.718-0.187-64.44-1.682-90.823 39.896-27.48 43.302-34.83 77.683-75.997 141.225C3.978 505.238 0.932 526.788 0.932 554.603c0 27.818-0.927 47.133-0.927 97.651s31.564 70.716 76.517 70.716h41.807c1.336-52.76 44.485-95.125 97.567-95.125s96.234 42.365 97.57 95.125h15.76V279.061z m-36.61 243.776l-175.584-0.568c-14.568-0.047-31.983-17.028-18.748-46.174 17.774-35.958 38.414-75.017 47.3-89.022 15.651-24.664 51.928-22.718 51.928-22.718h95.711l-0.608 158.482z" fill="#D43D21" /><path d="M215.896 627.08c-53.498 0-96.989 42.696-98.331 95.87-0.02 0.842-0.065 1.68-0.065 2.526 0 54.345 44.052 98.396 98.396 98.396s98.396-44.051 98.396-98.396c0-0.847-0.042-1.684-0.062-2.526-1.348-53.174-44.836-95.87-98.334-95.87z m52.305 98.396c0 28.886-23.416 52.302-52.305 52.302-28.886 0-52.304-23.416-52.304-52.302s23.418-52.304 52.304-52.304c28.889 0 52.304 23.418 52.304 52.304z" fill="#1B2327" /><path d="M162.339 725.476a53.557 53.557 0 1 0 107.114 0 53.557 53.557 0 1 0-107.114 0z" fill="#2B3237" /><path d="M145.584 387.07c-8.886 14.005-29.529 53.065-47.3 89.023-13.235 29.145 4.183 46.129 18.748 46.174l175.583 0.568 0.608-158.483H197.51s-36.275-1.945-51.926 22.719z" fill="#FFFFFF" /><path d="M960.062 215.116h-566.89c-25.407 0-47.35 14.817-57.666 36.28-3.826 7.964-8.771 22.813-8.771 27.665v443.91l355.634 0.283c0-0.097-0.008-0.19-0.008-0.286 0-53.922 43.708-97.632 97.631-97.632 53.922 0 97.632 43.708 97.632 97.632 0 0.149-0.01 0.294-0.013 0.443l82.451 0.067c35.313 0 63.943-28.627 63.943-63.942V279.06c0-35.315-28.63-63.945-63.943-63.945zM759.025 451.763c0 13.524-10.96 24.484-24.487 24.484h-38.872v38.873c0 13.526-10.96 24.49-24.487 24.49h-16.371c-13.524 0-24.49-10.964-24.49-24.49v-38.873h-38.875c-13.516 0-24.484-10.96-24.484-24.484v-16.376c0-13.522 10.968-24.485 24.484-24.485h38.873v-38.87c0-13.526 10.965-24.487 24.49-24.487h16.37c13.527 0 24.487 10.96 24.487 24.487v38.87h38.873c13.526 0 24.487 10.963 24.487 24.485v16.376h0.002z" fill="#E74424" /><path d="M779.992 624.571c-54.344 0-98.396 44.052-98.396 98.397 0 0.097 0.008 0.191 0.008 0.289 0.157 54.21 44.141 98.107 98.388 98.107 54.193 0 98.143-43.81 98.384-97.95 0.003-0.15 0.013-0.297 0.013-0.446 0-54.345-44.054-98.397-98.397-98.397z m0 150.698c-28.886 0-52.304-23.415-52.304-52.301s23.418-52.305 52.304-52.305 52.305 23.418 52.305 52.305-23.418 52.301-52.305 52.301z" fill="#1B2327" /><path d="M726.435 722.968a53.557 53.557 0 1 0 107.115 0 53.557 53.557 0 1 0-107.115 0z" fill="#2B3237" /><path d="M300.412 222.707c0-12.473-12.849-22.582-28.7-22.582s-28.698 10.111-28.698 22.582v28.587h57.398v-28.587z" fill="#E74424" /><path d="M734.538 410.902h-38.872v-38.87c0-13.526-10.96-24.487-24.487-24.487h-16.371c-13.524 0-24.49 10.96-24.49 24.487v38.87h-38.875c-13.516 0-24.484 10.963-24.484 24.485v16.376c0 13.524 10.968 24.484 24.484 24.484h38.873v38.873c0 13.526 10.965 24.49 24.49 24.49h16.37c13.527 0 24.487-10.964 24.487-24.49v-38.873h38.873c13.526 0 24.487-10.96 24.487-24.484v-16.376c0.002-13.52-10.958-24.485-24.485-24.485z" fill="#F7F1E6" /></svg>